<svg xmlns="http://www.w3.org/2000/svg" xmlns:xlink="http://www.w3.org/1999/xlink" width="500" zoomAndPan="magnify" viewBox="0 0 375 339.749992" height="453" preserveAspectRatio="xMidYMid meet" version="1.0"><defs><clipPath id="ea6843f1d8"><path d="M 1.390625 0 L 373.671875 0 L 373.671875 50 L 1.390625 50 Z M 1.390625 0 " clip-rule="nonzero"/></clipPath><clipPath id="54b37238e2"><path d="M 1.390625 144.15625 L 373.671875 144.15625 L 373.671875 195 L 1.390625 195 Z M 1.390625 144.15625 " clip-rule="nonzero"/></clipPath><clipPath id="d4fbb60a65"><path d="M 1.390625 289 L 373.671875 289 L 373.671875 339.414062 L 1.390625 339.414062 Z M 1.390625 289 " clip-rule="nonzero"/></clipPath></defs><g clip-path="url(#ea6843f1d8)"><path fill="#ffffff" d="M 373.671875 49.679688 L 1.390625 49.679688 L 1.390625 0.0117188 L 373.671875 0.0117188 L 373.671875 49.679688 " fill-opacity="1" fill-rule="nonzero"/></g><g clip-path="url(#54b37238e2)"><path fill="#ffffff" d="M 373.671875 194.546875 L 1.390625 194.546875 L 1.390625 144.878906 L 373.671875 144.878906 L 373.671875 194.546875 " fill-opacity="1" fill-rule="nonzero"/></g><g clip-path="url(#d4fbb60a65)"><path fill="#ffffff" d="M 373.671875 339.414062 L 1.390625 339.414062 L 1.390625 289.746094 L 373.671875 289.746094 L 373.671875 339.414062 " fill-opacity="1" fill-rule="nonzero"/></g></svg>